<mxfile>
    <diagram id="ITNncZc6mTnSc8X_e-E-" name="Page-1">
        <mxGraphModel dx="708" dy="393" grid="1" gridSize="10" guides="1" tooltips="1" connect="1" arrows="1" fold="1" page="1" pageScale="1" pageWidth="827" pageHeight="1169" math="0" shadow="0">
            <root>
                <mxCell id="0"/>
                <mxCell id="1" parent="0"/>
                <mxCell id="2" value="&lt;p style=&quot;line-height: 0%&quot;&gt;&lt;/p&gt;&lt;span style=&quot;font-size: 15px ; text-align: justify&quot;&gt;the_letter_a&lt;/span&gt;&lt;br&gt;&lt;span style=&quot;color: rgb(215 , 186 , 125) ; font-size: 15px ; text-align: justify&quot;&gt;判断入参第一个字母是不是'a'，&lt;/span&gt;&lt;br&gt;&lt;span style=&quot;color: rgb(215 , 186 , 125) ; font-size: 15px ; text-align: justify&quot;&gt;如果是返回字符串剩余部分，&lt;/span&gt;&lt;br&gt;&lt;span style=&quot;font-size: 15px ; color: rgb(215 , 186 , 125)&quot;&gt;如果不是以入参为错误返回&lt;/span&gt;&lt;br&gt;&lt;p&gt;&lt;/p&gt;" style="rounded=1;whiteSpace=wrap;html=1;align=center;verticalAlign=middle;" parent="1" vertex="1">
                    <mxGeometry x="230" y="85" width="240" height="90" as="geometry"/>
                </mxCell>
                <mxCell id="3" value="Element" style="swimlane;fontStyle=0;childLayout=stackLayout;horizontal=1;startSize=26;horizontalStack=0;resizeParent=1;resizeParentMax=0;resizeLast=0;collapsible=1;marginBottom=0;align=center;fontSize=14;" parent="1" vertex="1" collapsed="1">
                    <mxGeometry x="20" y="20" width="80" height="26" as="geometry">
                        <mxRectangle x="40" y="30" width="160" height="116" as="alternateBounds"/>
                    </mxGeometry>
                </mxCell>
                <mxCell id="4" value="name:String" style="text;strokeColor=none;fillColor=none;spacingLeft=4;spacingRight=4;overflow=hidden;rotatable=0;points=[[0,0.5],[1,0.5]];portConstraint=eastwest;fontSize=12;" parent="3" vertex="1">
                    <mxGeometry y="26" width="80" height="30" as="geometry"/>
                </mxCell>
                <mxCell id="5" value="attributes:Vec&lt;(String, String)&gt;" style="text;strokeColor=none;fillColor=none;spacingLeft=4;spacingRight=4;overflow=hidden;rotatable=0;points=[[0,0.5],[1,0.5]];portConstraint=eastwest;fontSize=12;" parent="3" vertex="1">
                    <mxGeometry y="56" width="80" height="30" as="geometry"/>
                </mxCell>
                <mxCell id="6" value="children:Vec&lt;Element&gt;" style="text;strokeColor=none;fillColor=none;spacingLeft=4;spacingRight=4;overflow=hidden;rotatable=0;points=[[0,0.5],[1,0.5]];portConstraint=eastwest;fontSize=12;" parent="3" vertex="1">
                    <mxGeometry y="86" width="80" height="30" as="geometry"/>
                </mxCell>
                <mxCell id="7" value="&amp;amp;str" style="ellipse;whiteSpace=wrap;html=1;aspect=fixed;" parent="1" vertex="1">
                    <mxGeometry x="50" y="90" width="90" height="90" as="geometry"/>
                </mxCell>
                <mxCell id="8" value="&lt;span style=&quot;font-family: , &amp;#34;consolas&amp;#34; , &amp;#34;liberation mono&amp;#34; , &amp;#34;menlo&amp;#34; , monospace ; font-size: 13.6px&quot;&gt;Result&amp;lt;(&amp;amp;str, ()), &amp;amp;str&amp;gt;&lt;/span&gt;" style="ellipse;whiteSpace=wrap;html=1;aspect=fixed;" parent="1" vertex="1">
                    <mxGeometry x="560" y="90" width="90" height="90" as="geometry"/>
                </mxCell>
                <mxCell id="9" value="入参" style="html=1;shadow=0;dashed=0;align=center;verticalAlign=middle;shape=mxgraph.arrows2.arrow;dy=0.6;dx=40;notch=0;rounded=1;fillColor=#2a2a2a;gradientColor=none;" parent="1" vertex="1">
                    <mxGeometry x="140" y="110" width="90" height="40" as="geometry"/>
                </mxCell>
                <mxCell id="10" value="出参" style="html=1;shadow=0;dashed=0;align=center;verticalAlign=middle;shape=mxgraph.arrows2.arrow;dy=0.6;dx=40;notch=0;rounded=1;fillColor=#2a2a2a;gradientColor=none;" parent="1" vertex="1">
                    <mxGeometry x="470" y="115" width="90" height="40" as="geometry"/>
                </mxCell>
                <mxCell id="11" value="&lt;p style=&quot;line-height: 0%&quot;&gt;&lt;/p&gt;&lt;span style=&quot;font-size: 13.6px ; text-align: justify&quot;&gt;match_literal&lt;/span&gt;&lt;br&gt;&lt;span style=&quot;text-align: justify ; color: rgb(215 , 186 , 125) ; font-size: 15px&quot;&gt;返回一个方法，用于查找入参&lt;br&gt;&lt;/span&gt;&lt;p&gt;&lt;/p&gt;" style="rounded=1;whiteSpace=wrap;html=1;align=center;verticalAlign=middle;horizontal=1;" parent="1" vertex="1">
                    <mxGeometry x="230" y="260" width="240" height="90" as="geometry"/>
                </mxCell>
                <mxCell id="12" value="&amp;amp;str:期望匹配的字符串" style="ellipse;whiteSpace=wrap;html=1;aspect=fixed;" parent="1" vertex="1">
                    <mxGeometry x="50" y="260" width="90" height="90" as="geometry"/>
                </mxCell>
                <mxCell id="13" value="入参" style="html=1;shadow=0;dashed=0;align=center;verticalAlign=middle;shape=mxgraph.arrows2.arrow;dy=0.6;dx=40;notch=0;rounded=1;fillColor=#2a2a2a;gradientColor=none;" parent="1" vertex="1">
                    <mxGeometry x="140" y="285" width="90" height="40" as="geometry"/>
                </mxCell>
                <mxCell id="14" value="&#10;impl Fn(&amp;str) -&gt; &#10;&#10;Result&#10;&lt;(&amp;str, ()), &amp;str&gt;&#10;&#10;在输入的字符串里查找匹配字符串的方法&#10;" style="ellipse;aspect=fixed;align=center;whiteSpace=wrap;labelPosition=center;verticalLabelPosition=middle;verticalAlign=middle;" parent="1" vertex="1">
                    <mxGeometry x="560" y="220" width="170" height="170" as="geometry"/>
                </mxCell>
                <mxCell id="15" value="出参" style="html=1;shadow=0;dashed=0;align=center;verticalAlign=middle;shape=mxgraph.arrows2.arrow;dy=0.6;dx=40;notch=0;rounded=1;fillColor=#2a2a2a;gradientColor=none;" parent="1" vertex="1">
                    <mxGeometry x="470" y="285" width="90" height="40" as="geometry"/>
                </mxCell>
                <mxCell id="16" value="&lt;p style=&quot;line-height: 0%&quot;&gt;&lt;/p&gt;&lt;span style=&quot;color: rgb(248 , 248 , 242) ; font-family: &amp;#34;menlo&amp;#34; , &amp;#34;monaco&amp;#34; , &amp;#34;courier new&amp;#34; , monospace ; font-size: 14px ; background-color: rgba(10 , 10 , 10 , 0.4)&quot;&gt;identifier&lt;/span&gt;&lt;br&gt;&lt;ul&gt;&lt;li style=&quot;text-align: left&quot;&gt;&lt;span style=&quot;color: rgb(215 , 186 , 125) ; font-size: 15px&quot;&gt;挑拣出所有字母，数字以及“-”的组合&lt;/span&gt;&lt;/li&gt;&lt;li style=&quot;text-align: left&quot;&gt;&lt;span style=&quot;color: rgb(215 , 186 , 125) ; font-size: 15px&quot;&gt;首字母以字母开头&lt;/span&gt;&lt;/li&gt;&lt;li style=&quot;text-align: left&quot;&gt;&lt;span style=&quot;color: rgb(215 , 186 , 125) ; font-size: 15px&quot;&gt;遇到非上述组合时返回剩下的字符串&lt;/span&gt;&lt;/li&gt;&lt;/ul&gt;&lt;p&gt;&lt;/p&gt;" style="rounded=1;whiteSpace=wrap;html=1;align=center;verticalAlign=middle;horizontal=1;" vertex="1" parent="1">
                    <mxGeometry x="230" y="410" width="290" height="130" as="geometry"/>
                </mxCell>
                <mxCell id="17" value="&amp;amp;str:待处理的字符串" style="ellipse;whiteSpace=wrap;html=1;aspect=fixed;" vertex="1" parent="1">
                    <mxGeometry x="50" y="430" width="90" height="90" as="geometry"/>
                </mxCell>
                <mxCell id="18" value="入参" style="html=1;shadow=0;dashed=0;align=center;verticalAlign=middle;shape=mxgraph.arrows2.arrow;dy=0.6;dx=40;notch=0;rounded=1;fillColor=#2a2a2a;gradientColor=none;" vertex="1" parent="1">
                    <mxGeometry x="140" y="455" width="90" height="40" as="geometry"/>
                </mxCell>
                <mxCell id="19" value="出参" style="html=1;shadow=0;dashed=0;align=center;verticalAlign=middle;shape=mxgraph.arrows2.arrow;dy=0.6;dx=40;notch=0;rounded=1;fillColor=#2a2a2a;gradientColor=none;" vertex="1" parent="1">
                    <mxGeometry x="520" y="455" width="90" height="40" as="geometry"/>
                </mxCell>
                <mxCell id="20" value="Result&lt;(&amp;str, String), &amp;str&gt;&#10;&amp;str为未处理的剩余字符串，String为检索出来的字符" style="ellipse;aspect=fixed;align=center;whiteSpace=wrap;labelPosition=center;verticalLabelPosition=middle;verticalAlign=middle;" vertex="1" parent="1">
                    <mxGeometry x="600" y="390" width="170" height="170" as="geometry"/>
                </mxCell>
                <mxCell id="22" value="&lt;p style=&quot;line-height: 0%&quot;&gt;&lt;/p&gt;&lt;span style=&quot;color: rgb(248 , 248 , 242) ; font-family: &amp;#34;menlo&amp;#34; , &amp;#34;monaco&amp;#34; , &amp;#34;courier new&amp;#34; , monospace ; font-size: 14px ; background-color: rgba(10 , 10 , 10 , 0.4)&quot;&gt;pair&lt;/span&gt;&lt;br&gt;&lt;ul&gt;&lt;li style=&quot;text-align: left&quot;&gt;&lt;font color=&quot;#d7ba7d&quot;&gt;&lt;span style=&quot;font-size: 15px&quot;&gt;组合两个解析器&lt;/span&gt;&lt;/font&gt;&lt;/li&gt;&lt;li style=&quot;text-align: left&quot;&gt;&lt;span style=&quot;color: rgb(215 , 186 , 125) ; font-size: 15px&quot;&gt;按顺序执行两个解析器&lt;/span&gt;&lt;/li&gt;&lt;li style=&quot;text-align: left&quot;&gt;&lt;span style=&quot;color: rgb(215 , 186 , 125) ; font-size: 15px&quot;&gt;返回组合后的解析器&lt;/span&gt;&lt;/li&gt;&lt;/ul&gt;&lt;p&gt;&lt;/p&gt;" style="rounded=1;whiteSpace=wrap;html=1;align=center;verticalAlign=middle;horizontal=1;" vertex="1" parent="1">
                    <mxGeometry x="275" y="615" width="200" height="120" as="geometry"/>
                </mxCell>
                <mxCell id="23" value="Fn：解析器A&lt;br&gt;Fn：解析器B" style="ellipse;whiteSpace=wrap;html=1;aspect=fixed;" vertex="1" parent="1">
                    <mxGeometry x="60" y="630" width="90" height="90" as="geometry"/>
                </mxCell>
                <mxCell id="24" value="入参" style="html=1;shadow=0;dashed=0;align=center;verticalAlign=middle;shape=mxgraph.arrows2.arrow;dy=0.6;dx=40;notch=0;rounded=1;fillColor=#2a2a2a;gradientColor=none;" vertex="1" parent="1">
                    <mxGeometry x="150" y="655" width="120" height="40" as="geometry"/>
                </mxCell>
                <mxCell id="25" value="impl Fn(&amp;str) -&gt; Result&lt;(&amp;str, (R1, R2)), &amp;str&gt;&#10;未能解析的剩余字符串&#10;解析器1的结果+解析器2的结果&#10;" style="ellipse;aspect=fixed;align=center;whiteSpace=wrap;labelPosition=center;verticalLabelPosition=middle;verticalAlign=middle;" vertex="1" parent="1">
                    <mxGeometry x="590" y="590" width="170" height="170" as="geometry"/>
                </mxCell>
                <mxCell id="26" value="出参" style="html=1;shadow=0;dashed=0;align=center;verticalAlign=middle;shape=mxgraph.arrows2.arrow;dy=0.6;dx=40;notch=0;rounded=1;fillColor=#2a2a2a;gradientColor=none;" vertex="1" parent="1">
                    <mxGeometry x="475" y="655" width="115" height="40" as="geometry"/>
                </mxCell>
            </root>
        </mxGraphModel>
    </diagram>
</mxfile>